HIERARCHY
ROOT root
{
	OFFSET	0	13.1	24.9
	CHANNELS 6  Xposition Yposition Zposition Xrotation Yrotation Zrotation
	JOINT spine_1
	{
		OFFSET	0	9.99999	0
		CHANNELS 3  Xrotation Yrotation Zrotation
		JOINT spine_2
		{
			OFFSET	0	112	-10
			CHANNELS 3  Xrotation Yrotation Zrotation
			JOINT spine_3
			{
				OFFSET	0	206.5	19.3
				CHANNELS 3  Xrotation Yrotation Zrotation
				JOINT spine_4
				{
					OFFSET	0	110.4	14.6
					CHANNELS 3  Xrotation Yrotation Zrotation
					JOINT neck_1
					{
						OFFSET	0	71.8	-50.3
						CHANNELS 3  Xrotation Yrotation Zrotation
						JOINT neck_2
						{
							OFFSET	0	86.2	-25.8
							CHANNELS 3  Xrotation Yrotation Zrotation
							JOINT head_ee
							{
								OFFSET	0	179.8	-8.7
								CHANNELS 3  Xrotation Yrotation Zrotation
								End Site
								{
									OFFSET	1	0	0
								}
							}
						}
					}
					JOINT left_clavicle
					{
						OFFSET	-43.2	22.4	-70.8
						CHANNELS 3  Xrotation Yrotation Zrotation
						JOINT left_shoulder
						{
							OFFSET	-93.9	-5.79999	48.7
							CHANNELS 3  Xrotation Yrotation Zrotation
							JOINT left_elbow
							{
								OFFSET	-291.4	-30.8	15.2
								CHANNELS 3  Xrotation Yrotation Zrotation
								JOINT left_lowarm_twist
								{
									OFFSET	-110.7	-3.89999	13.6
									CHANNELS 3  Xrotation Yrotation Zrotation
									JOINT left_hand
									{
										OFFSET	-110.7	-3.89999	13.6
										CHANNELS 3  Xrotation Yrotation Zrotation
										JOINT left_ee
										{
											OFFSET	-80.8	-5.10001	12.1
											CHANNELS 3  Xrotation Yrotation Zrotation
											End Site
											{
												OFFSET	1	0	0
											}
										}
									}
								}
							}
						}
					}
					JOINT right_clavicle
					{
						OFFSET	43.2	22.4	-70.8
						CHANNELS 3  Xrotation Yrotation Zrotation
						JOINT right_shoulder
						{
							OFFSET	93.9	-5.79999	48.7
							CHANNELS 3  Xrotation Yrotation Zrotation
							JOINT right_elbow
							{
								OFFSET	291.4	-30.8	15.2
								CHANNELS 3  Xrotation Yrotation Zrotation
								JOINT right_lowarm_twist
								{
									OFFSET	110.7	-3.89999	13.6
									CHANNELS 3  Xrotation Yrotation Zrotation
									JOINT right_hand
									{
										OFFSET	110.7	-3.89999	13.6
										CHANNELS 3  Xrotation Yrotation Zrotation
										JOINT right_ee
										{
											OFFSET	80.8	-5.10001	12.1
											CHANNELS 3  Xrotation Yrotation Zrotation
											End Site
											{
												OFFSET	1	0	0
											}
										}
									}
								}
							}
						}
					}
				}
			}
		}
	}
	JOINT left_hip
	{
		OFFSET	-82.8	-127.5	0.300001
		CHANNELS 3  Xrotation Yrotation Zrotation
		JOINT left_knee
		{
			OFFSET	-28.2	-396.7	2.2
			CHANNELS 3  Xrotation Yrotation Zrotation
			JOINT left_ankle
			{
				OFFSET	-11.7	-411.3	35.4
				CHANNELS 3  Xrotation Yrotation Zrotation
				JOINT left_toes
				{
					OFFSET	0	-60	-88.6
					CHANNELS 3  Xrotation Yrotation Zrotation
					JOINT left_foot_ee
					{
						OFFSET	-22.5	-16.5	-42.2
						CHANNELS 3  Xrotation Yrotation Zrotation
						End Site
						{
							OFFSET	1	0	0
						}
					}
				}
			}
		}
	}
	JOINT right_hip
	{
		OFFSET	82.8	-127.5	0.300001
		CHANNELS 3  Xrotation Yrotation Zrotation
		JOINT right_knee
		{
			OFFSET	28.2	-396.7	2.2
			CHANNELS 3  Xrotation Yrotation Zrotation
			JOINT right_ankle
			{
				OFFSET	11.7	-411.3	35.4
				CHANNELS 3  Xrotation Yrotation Zrotation
				JOINT right_toes
				{
					OFFSET	0	-60	-88.6
					CHANNELS 3  Xrotation Yrotation Zrotation
					JOINT right_foot_ee
					{
						OFFSET	22.5	-16.5	-42.2
						CHANNELS 3  Xrotation Yrotation Zrotation
						End Site
						{
							OFFSET	1	0	0
						}
					}
				}
			}
		}
	}
}
MOTION
Frames: 10
Frame Time: 0.02
3613.53 782.095 -692.671 13.185 70.3582 -7.11835 -2.98724 -0.0892055 -0.403194 -2.98715 -0.0633687 -0.408053 -2.98657 0.045257 -0.410456 -2.9868 -0.0201344 -0.412453 -3.94634 9.80534 7.38553 -3.78022 12.2662 9.12594 -0.0 0.0 -0.0 8.23413 -13.932 15.8622 -16.7158 -23.0315 56.2681 0.60692 -16.7335 0.0892633 4.22643 0.129621 -0.524164 0.607791 -8.13269 0.651217 -0.0 0.0 -0.0 11.7811 5.10889 -23.6853 -13.2857 21.1391 -53.6233 0.708514 19.3399 -0.120728 52.1639 1.12805 6.34011 2.07235 5.87186 -11.5664 0.0 0.0 0.0 22.9142 52.4844 -26.0631 -14.4266 0.320385 2.18492 -3.25719 -29.1968 0.607078 28.7222 -0.0 -0.0 -0.0 0.0 -0.0 -6.94974 -2.91559 -0.643363 1.843 0.0802693 0.271403 -12.4827 -19.533 -1.90036 18.925 -0.0 -0.0 0.0 0.0 0.0 
3610.82 781.909 -695.055 12.9929 70.3131 -6.71365 -2.97278 -0.101779 -0.467069 -2.97267 -0.0718526 -0.472599 -2.9719 0.0537809 -0.474995 -2.97222 -0.0219098 -0.477528 -3.00485 9.57828 7.86752 -2.81923 11.2752 9.54185 -0.0 0.0 -0.0 10.1139 -14.2774 19.9755 -19.6528 -22.405 52.8265 0.443077 -12.3796 0.048054 3.76704 0.117411 -0.466752 0.226169 -8.30157 -1.99775 -0.0 0.0 -0.0 11.3718 5.09246 -22.7867 -13.552 21.4403 -54.2607 0.827951 22.3005 -0.163194 56.0288 1.43341 6.72975 1.16603 -0.073052 -7.84196 0.0 0.0 0.0 22.8711 52.0927 -26.4466 -14.205 0.31965 2.15093 -5.43068 -29.1286 1.01639 28.1097 -0.0 -0.0 -0.0 0.0 -0.0 -7.68427 -3.34123 -1.06921 3.15754 0.142847 0.463373 -13.8336 -22.8661 -2.13621 23.3797 -0.0 -0.0 0.0 0.0 0.0 
3606.81 782.27 -696.321 12.7014 69.9539 -6.23735 -2.97462 -0.0417779 -0.469334 -2.97449 -0.0118286 -0.471041 -2.97425 0.111346 -0.457845 -2.97454 0.0376411 -0.469684 -2.43493 9.78403 7.75072 -2.24757 11.6197 9.42417 -0.0 0.0 -0.0 10.4519 -14.6866 20.7125 -21.6538 -23.3104 51.9464 0.389946 -10.9332 0.0373185 2.6709 0.0864185 -0.330166 0.217484 -9.24407 -2.45849 -0.0 0.0 -0.0 11.7168 5.64897 -23.5631 -14.0964 21.3129 -53.7128 0.877191 23.4864 -0.182351 55.4107 1.38281 6.66882 0.882099 -1.06476 -6.33517 0.0 0.0 0.0 24.686 50.8193 -28.3792 -17.19 0.318506 2.60887 -3.088 -29.7092 0.579334 27.9294 -0.0 -0.0 -0.0 0.0 -0.0 -8.18875 -3.70001 -1.26425 4.15031 0.193023 0.607394 -14.655 -20.9586 -2.24711 23.3426 -0.0 -0.0 0.0 0.0 0.0 
3603.02 779.542 -694.121 12.5624 70.1791 -6.07571 -2.85459 -0.0824677 -0.443149 -2.85449 -0.0541021 -0.447499 -2.85392 0.0634589 -0.446268 -2.8542 -0.00781641 -0.450689 -2.46587 9.76769 8.20754 -2.26395 11.2333 9.89935 -0.0 0.0 -0.0 10.0515 -13.6591 19.8596 -22.594 -23.8599 52.6588 0.439989 -12.2959 0.0473941 2.96233 0.0949137 -0.366423 0.22412 -9.40528 -2.48247 -0.0 0.0 -0.0 11.5531 5.29489 -23.1907 -14.4857 21.224 -53.6706 0.90972 24.2583 -0.195515 55.1075 1.35823 6.63874 0.778025 -0.53463 -5.42192 0.0 0.0 0.0 24.8541 51.1765 -28.3891 -17.6643 0.316129 2.68159 -4.53276 -28.9008 0.844042 29.8622 -0.0 -0.0 -0.0 0.0 -0.0 -8.07627 -4.01267 -1.01084 3.95142 0.182771 0.57861 -15.2458 -21.0797 -2.33993 22.5308 -0.0 -0.0 0.0 0.0 0.0 
3598.51 780.239 -696.301 12.598 69.7579 -5.75923 -2.81004 -0.0897946 -0.485873 -2.80991 -0.0586957 -0.490602 -2.80923 0.0697867 -0.489148 -2.80957 -0.00833996 -0.49403 -2.48625 9.6001 8.36029 -2.28116 10.8114 10.0373 -0.0 0.0 -0.0 9.9486 -13.2121 19.647 -23.0221 -24.3688 53.203 0.407709 -11.4185 0.0407612 3.18737 0.101347 -0.39445 0.214377 -9.22473 -2.47123 -0.0 0.0 -0.0 11.5664 5.16928 -23.2154 -14.3943 21.3099 -53.8095 0.945239 25.0907 -0.210344 54.8812 1.33999 6.61619 0.713314 -0.186765 -4.84594 0.0 0.0 0.0 24.8566 50.1911 -29.0381 -19.0399 0.305827 2.89241 -5.82222 -29.1288 1.0906 31.0143 -0.0 -0.0 -0.0 0.0 -0.0 -8.2637 -4.13102 -1.5671 3.98155 0.184318 0.582972 -15.629 -20.9559 -2.39833 21.9246 -0.0 -0.0 0.0 0.0 0.0 
3591.97 779.918 -696.525 12.7159 70.2217 -5.49475 -2.65747 -0.192469 -0.650589 -2.65725 -0.150681 -0.661517 -2.65517 0.0231537 -0.678065 -2.6558 -0.0842222 -0.673213 -2.67881 9.80068 7.01433 -2.51396 12.2854 8.67161 -0.0 0.0 -0.0 9.54422 -13.1503 18.7576 -23.1499 -24.3774 54.2024 0.454293 -12.683 0.0504876 4.04053 0.124735 -0.50092 0.393384 -9.42755 -1.34861 -0.0 0.0 -0.0 11.1198 4.92359 -22.2317 -14.5694 21.3049 -54.5108 0.96796 25.6172 -0.220073 53.6466 1.24206 6.49199 0.729539 1.44059 -4.28446 0.0 0.0 0.0 24.9478 51.024 -29.763 -17.7963 0.31536 2.70183 -6.7707 -29.0722 1.26977 32.8717 -0.0 -0.0 -0.0 0.0 -0.0 -8.46103 -3.93992 -2.00493 3.46491 0.158114 0.508054 -15.5798 -22.5414 -2.40604 21.6009 -0.0 -0.0 0.0 0.0 0.0 
3584.98 780.195 -689.623 12.2435 71.0425 -4.78505 -2.4508 -0.33353 -0.860233 -2.45043 -0.278117 -0.879711 -2.44556 -0.0477548 -0.921387 -2.44669 -0.192665 -0.902284 -3.56959 10.0108 6.52806 -3.42222 13.2306 8.25282 -0.0 0.0 -0.0 9.33101 -12.5838 18.3092 -22.4702 -24.5812 55.7696 0.501137 -13.942 0.0612746 4.58207 0.138757 -0.568676 0.420377 -8.84505 -0.917756 -0.0 0.0 -0.0 10.9257 2.34983 -21.7116 -14.8052 21.1578 -53.6851 0.993919 26.2132 -0.231418 51.0334 1.04378 6.22237 1.0879 3.87737 -5.68996 0.0 0.0 0.0 24.7672 52.9263 -29.3285 -16.7852 0.32006 2.54677 -4.30909 -29.0816 0.803925 33.3409 -0.0 -0.0 -0.0 0.0 -0.0 -7.39679 -4.48494 -1.82634 1.71481 0.0744037 0.25261 -13.2282 -23.3025 -2.04553 22.725 -0.0 -0.0 0.0 0.0 0.0 
3577.07 779.79 -689.63 14.3957 70.7503 -6.54928 -2.50347 -0.34832 -0.90527 -2.50306 -0.290012 -0.925598 -2.49769 -0.0468379 -0.968833 -2.49895 -0.199252 -0.94928 -3.02223 10.5739 6.1005 -2.86912 14.485 7.85291 -0.0 0.0 -0.0 9.29048 -11.8622 18.2433 -22.9291 -25.8201 56.0953 0.452572 -12.6365 0.0501105 4.67177 0.141017 -0.579911 0.490797 -8.39226 -0.249253 -0.0 0.0 -0.0 10.7192 1.89981 -21.2513 -14.9014 21.0064 -53.9306 1.00401 26.4433 -0.235896 50.5778 1.01048 6.17446 1.38617 7.52139 -6.17759 0.0 0.0 0.0 22.4873 51.0934 -28.6082 -17.6908 0.315978 2.68566 -5.83432 -29.2201 1.09424 34.1984 -0.0 -0.0 -0.0 0.0 -0.0 -7.18824 -4.28662 -1.56429 -1.11198 -0.0441866 -0.164925 -13.1502 -23.9599 -2.03953 22.4304 -0.0 -0.0 0.0 0.0 0.0 
3572.28 778.563 -685.526 13.2717 70.9051 -6.13164 -2.44166 -0.363753 -0.999646 -2.44116 -0.29941 -1.02076 -2.43502 -0.0330588 -1.06325 -2.43654 -0.200555 -1.04469 -3.84375 10.1692 5.57759 -3.71897 14.3098 7.32138 -0.0 0.0 -0.0 9.36721 -10.46 18.446 -24.6489 -27.0031 55.4462 0.552349 -15.3027 0.0742038 5.67529 0.165106 -0.705838 0.891786 -9.6655 1.91466 -0.0 0.0 -0.0 10.4971 0.519901 -20.7143 -15.2568 20.9305 -53.3962 1.04464 27.3603 -0.25428 48.5916 0.869836 5.9626 1.66677 10.6635 -6.72925 0.0 0.0 0.0 19.3217 53.3855 -25.2182 -13.3762 0.315736 2.02383 -7.00969 -29.1117 1.31592 36.66 -0.0 -0.0 -0.0 0.0 -0.0 -5.25563 -4.39731 -0.405245 -3.85441 -0.139397 -0.574998 -13.7627 -28.347 -2.18781 23.5746 -0.0 -0.0 0.0 0.0 0.0 
3562.79 781.52 -684.739 15.3485 71.3549 -7.53993 -2.61096 -0.348454 -1.16982 -2.61024 -0.273314 -1.18962 -2.60348 0.0382607 -1.22 -2.60553 -0.154882 -1.21074 -5.39053 9.33767 3.36126 -5.33572 14.7124 5.07412 -0.0 0.0 -0.0 9.67207 -8.22101 19.1365 -24.9783 -27.9358 53.8877 0.608744 -16.781 0.0897892 6.51965 0.183663 -0.812101 1.11526 -9.11653 3.66021 -0.0 0.0 -0.0 10.3643 -0.58275 -20.3765 -15.4274 20.8275 -53.3821 1.04609 27.3926 -0.254943 46.7649 0.747066 5.7636 1.95832 14.2734 -7.10546 0.0 0.0 0.0 17.6021 52.3456 -24.8926 -13.3394 0.31552 2.01818 -8.75581 -28.7616 1.64125 37.6788 -0.0 -0.0 -0.0 0.0 -0.0 -5.09508 -4.32601 -1.39071 -5.02535 -0.174044 -0.751358 -15.3918 -29.8459 -2.47414 24.3848 -0.0 -0.0 0.0 0.0 0.0 
